# xmcd
#
# Track frame offsets:
# 150
# 26462
# 52605
# 69515
# 93240
# 114284
# 129408
# 151511
# 169087
# 190076
# 218742
# 248522
# 270611
# 286786
#
# Disc length: 4027 seconds
#
# Revision: 1
# Processed by: cddbd v1.5PL3 Copyright (c) Steve Scherf et al.
# Submitted via: Easy CD Ripper v2.26
#
DISCID=a50fb90e
DTITLE=donna summers - greatest hits history
DYEAR=2002
DGENRE=Disco
TTITLE0=I FEEL LOVE - donna summers
TTITLE1=ON THE RADIO - donna summers
TTITLE2=THE WANDERER - donna summers
TTITLE3=SHE WORKS HARD FOR THE MONEY - donna summers
TTITLE4=NO MORE REARS - donna summers
TTITLE5=LOVE TO LOVE YOUR BABY - donna summers
TTITLE6=LAST DANCE - donna summers
TTITLE7=COULD IT BE MAGIC - donna summers
TTITLE8=I LOVE YOU - donna summers
TTITLE9=MACARTHUR PARK - donna summers
TTITLE10=FAT STUFF - donna summers
TTITLE11=BAD GIRLS - donna summers
TTITLE12=THIS TIME I KNOW IS FOR REAL - donna summers
TTITLE13=I DONT WANNA GET HURT - donna summers
EXTD=
EXTT0=
EXTT1=
EXTT2=
EXTT3=
EXTT4=
EXTT5=
EXTT6=
EXTT7=
EXTT8=
EXTT9=
EXTT10=
EXTT11=
EXTT12=
EXTT13=
PLAYORDER=
